<?xml version="1.0" encoding="utf-8"?>
<!-- Generator: Adobe Illustrator 17.0.0, SVG Export Plug-In . SVG Version: 6.00 Build 0)  -->
<!DOCTYPE svg PUBLIC "-//W3C//DTD SVG 1.1//EN" "http://www.w3.org/Graphics/SVG/1.1/DTD/svg11.dtd">
<svg version="1.1" id="Layer_2" xmlns="http://www.w3.org/2000/svg"  x="0px" y="0px"
	 width="841.89px" height="595.28px" viewBox="0 0 841.89 595.28" enable-background="new 0 0 841.89 595.28" xml:space="preserve">
<g>
	<path fill="#8DB8E9" d="M438.401,399.76c0,4.814-3.906,8.727-8.725,8.727H13.998c-4.821,0-8.729-3.913-8.729-8.727V195.52
		c0-4.819,3.908-8.727,8.729-8.727h415.676c4.819,0,8.725,3.908,8.725,8.727V399.76H438.401z"/>
	<path fill="#00609C" d="M827.894,408.486c4.817,0,8.727-3.913,8.727-8.727V195.52c0.002-4.821-3.908-8.729-8.725-8.729h-398.22
		l-31.23,85.349l25.5,50l-15.5,86.346H827.894z"/>
	<g>
		<path fill="#FFFFFF" d="M624.435,278.638h-28.499c-0.673-2.999-2.172-4.999-4.5-6c-2-1-4.5-1.664-7.5-2
			c-7,0.336-10.336,2.172-10,5.501c0,3.671,5.828,6.999,17.5,10c23.664,5.672,35.5,15.172,35.5,28.5c-0.672,19.999-15,30.328-43,31
			c-24.672-1-38.336-11-41-30h29c0.664,3.672,2.328,6.172,4.999,7.5c2,1.336,4.829,2,8.5,2c8.328,0,12.665-2.164,13-6.5
			c0-3.328-6-6.5-18-9.5c-23.336-5.664-35-15.664-35-30c0.664-18.664,13.828-28.5,39.5-29.5
			C608.263,249.974,621.435,259.638,624.435,278.638z"/>
		<path fill="#FFFFFF" d="M678.935,344.139h-39.5v-92h40.5c31.665,0.335,47.664,15,48,44
			C727.599,328.138,711.263,344.139,678.935,344.139z M669.435,273.639v49h6.5c14.328,0.336,21.5-8,21.5-25
			c0.664-17.001-6.672-25.001-22-24H669.435z"/>
	</g>
	<g>
		<path fill="#FFFFFF" d="M91.008,345.64H59.704v-96h45.913c26.781,0.701,40.517,11.478,41.218,32.347
			c-0.351,22.615-13.744,33.913-40.174,33.913H91.008V345.64z M91.008,293.466h13.043c7.998,0,12.171-3.823,12.521-11.478
			c-0.35-6.603-5.919-9.913-16.695-9.913h-8.87V293.466z"/>
		<path fill="#FFFFFF" d="M188.573,345.64h-31.304v-96h31.304v32.347h29.739V249.64h31.826v96h-31.826v-37.044h-29.739V345.64z"/>
		<path fill="#FFFFFF" d="M298.139,345.64h-31.304v-96h45.913c26.781,0.701,40.517,11.478,41.218,32.347
			c-0.351,22.615-13.744,33.913-40.174,33.913h-15.652V345.64z M298.139,293.466h13.043c7.998,0,12.171-3.823,12.521-11.478
			c-0.35-6.603-5.919-9.913-16.695-9.913h-8.87V293.466z"/>
	</g>
	<path fill="#00609C" d="M374.249,376.862"/>
</g>
</svg>
