<?xml version="1.0" encoding="utf-8"?>
<!-- Generator: Adobe Illustrator 17.0.0, SVG Export Plug-In . SVG Version: 6.00 Build 0)  -->
<!DOCTYPE svg PUBLIC "-//W3C//DTD SVG 1.1//EN" "http://www.w3.org/Graphics/SVG/1.1/DTD/svg11.dtd">
<svg xmlns:xlink="http://www.w3.org/1999/xlink" version="1.1" id="图层_1" xmlns="http://www.w3.org/2000/svg" x="0px" y="0px"
	 width="841.89px" height="595.28px" viewBox="0 0 841.89 595.28" enable-background="new 0 0 841.89 595.28" xml:space="preserve">
<g id="Layer_2" display="none">
	<g display="inline">
		<path fill="#8DB8E9" d="M438.401,399.76c0,4.814-3.906,8.727-8.725,8.727H13.998c-4.821,0-8.729-3.913-8.729-8.727V195.52
			c0-4.819,3.908-8.727,8.729-8.727h415.676c4.819,0,8.725,3.908,8.725,8.727V399.76H438.401z"/>
		<g>
			<path fill="#FFFFFF" d="M81.249,256.997h37.242c20.692,0,38.427,7.685,38.427,31.922c0,23.499-18.326,33.7-38.427,33.7h-11.822
				v30.44h-25.42V256.997z M117.311,302.516c10.048,0,14.777-5.027,14.777-13.598c0-8.57-5.319-11.822-14.777-11.822h-10.643v25.42
				H117.311z"/>
			<path fill="#FFFFFF" d="M172.586,256.997h25.421v35.763h28.669v-35.763h25.421v96.063h-25.421v-38.13h-28.669v38.13h-25.421
				L172.586,256.997L172.586,256.997z"/>
			<path fill="#FFFFFF" d="M273.382,256.997h37.243c20.691,0,38.425,7.685,38.425,31.922c0,23.499-18.325,33.7-38.425,33.7h-11.824
				v30.44h-25.42V256.997z M309.443,302.516c10.049,0,14.778-5.027,14.778-13.598c0-8.57-5.319-11.822-14.778-11.822h-10.641v25.42
				H309.443z"/>
		</g>
		<g>
			<g>
				<path fill="#00609C" d="M827.896,186.791h-398.22c-4.821,0-8.729,3.908-8.729,8.727v18.984h-37.967
					c-4.821,0-8.729,3.908-8.729,8.727v18.984c0,4.819,3.908,8.729,8.729,8.729h37.966v93.395h-37.967
					c-4.821,0-8.729,3.906-8.729,8.719v18.988c0,4.817,3.908,8.73,8.729,8.73h37.967v18.984c0,4.814,3.908,8.727,8.729,8.727h398.22
					c4.817,0,8.727-3.913,8.727-8.727V195.52C836.623,190.699,832.713,186.791,827.896,186.791z"/>
			</g>
		</g>
		<g>
			<path fill="#FFFFFF" d="M557.581,255.221c12.119,0,22.462,5.913,29.261,12.712l-13.893,15.665
				c-4.726-4.138-8.867-6.501-15.072-6.501c-11.528,0-21.283,10.345-21.283,27.786c0,18.026,8.275,28.079,20.689,28.079
				c7.39,0,12.709-3.255,16.848-7.687l13.893,15.372c-8.13,9.458-19.215,14.186-31.034,14.186
				c-25.129,0-46.409-16.257-46.409-49.067C510.582,273.548,532.752,255.221,557.581,255.221z"/>
			<path fill="#FFFFFF" d="M621.429,313.157h-25.715v-17.733h25.715v-26.605h18.323v26.605h25.715v17.733h-25.715v26.605h-18.323
				V313.157z"/>
			<path fill="#FFFFFF" d="M701.238,313.157h-25.715v-17.733h25.715v-26.605h18.326v26.605h25.715v17.733h-25.715v26.605h-18.326
				V313.157z"/>
		</g>
	</g>
</g>
<g>
	<g enable-background="new    ">
		<g>
			<path fill="#DF3926" d="M211.273,302.719c4.803-0.571,12.595,2.956,19.962,9.499c9.854,8.745,15.215,19.533,11.999,24.127
				c-0.809,1.15-2.079,1.799-3.685,1.99c-4.802,0.571-12.599-2.962-19.975-9.509c-9.844-8.737-15.223-19.532-11.995-24.11
				C208.388,303.563,209.662,302.91,211.273,302.719z"/>
		</g>
		<g enable-background="new    ">
			<defs>
				<path id="SVGID_1_" enable-background="new    " d="M241.914,337.573l-4.681,2.828c-0.668,0.403-1.463,0.655-2.365,0.762
					c-4.802,0.571-12.599-2.962-19.975-9.509c-9.844-8.737-15.223-19.532-11.995-24.11c0.356-0.507,0.801-0.917,1.326-1.234
					l4.681-2.828c-0.524,0.317-0.97,0.727-1.326,1.234c-3.228,4.578,2.151,15.373,11.995,24.11
					c7.377,6.547,15.173,10.079,19.975,9.509C240.45,338.228,241.246,337.977,241.914,337.573z"/>
			</defs>
			<clipPath id="SVGID_2_">
				<use xlink:href="#SVGID_1_"  overflow="visible"/>
			</clipPath>
			<g clip-path="url(#SVGID_2_)" enable-background="new    ">
				<path fill="#751E14" d="M241.914,337.573l-4.681,2.828c-0.668,0.403-1.463,0.655-2.365,0.762
					c-4.802,0.571-12.599-2.962-19.975-9.509c-9.844-8.737-15.223-19.532-11.995-24.11c0.356-0.507,0.801-0.917,1.326-1.234
					l4.681-2.828c-0.524,0.317-0.97,0.727-1.326,1.234c-3.228,4.578,2.151,15.373,11.995,24.11
					c7.377,6.547,15.173,10.079,19.975,9.509C240.45,338.228,241.246,337.977,241.914,337.573"/>
			</g>
		</g>
		<g>
			<path fill="#DF3926" d="M186.625,270.879c3.681-0.438,10.213,2.024,16.9,6.682c9.078,6.338,14.998,14.332,13.233,17.862
				c-0.467,0.93-1.42,1.457-2.738,1.613c-3.686,0.438-10.219-2.026-16.901-6.696c-9.08-6.347-15.004-14.322-13.223-17.854
				C184.361,271.56,185.311,271.035,186.625,270.879z"/>
		</g>
		<g enable-background="new    ">
			<defs>
				<path id="SVGID_3_" enable-background="new    " d="M215.755,296.491l-4.681,2.828c-0.47,0.284-1.054,0.464-1.735,0.545
					c-3.686,0.438-10.219-2.026-16.901-6.696c-9.08-6.347-15.004-14.322-13.223-17.854c0.224-0.447,0.562-0.8,0.998-1.064
					l4.681-2.828c-0.436,0.264-0.774,0.617-0.998,1.064c-1.781,3.532,4.144,11.507,13.223,17.854
					c6.682,4.67,13.215,7.134,16.901,6.696C214.702,296.955,215.286,296.775,215.755,296.491z"/>
			</defs>
			<clipPath id="SVGID_4_">
				<use xlink:href="#SVGID_3_"  overflow="visible"/>
			</clipPath>
			<g clip-path="url(#SVGID_4_)" enable-background="new    ">
				<path fill="#751E14" d="M215.755,296.491l-4.681,2.828c-0.47,0.284-1.054,0.464-1.735,0.545
					c-3.686,0.438-10.219-2.026-16.901-6.696c-9.08-6.347-15.004-14.322-13.223-17.854c0.224-0.447,0.562-0.8,0.998-1.064
					l4.681-2.828c-0.437,0.264-0.774,0.617-0.998,1.064c-1.781,3.532,4.144,11.507,13.223,17.854
					c6.682,4.67,13.215,7.134,16.901,6.696C214.702,296.955,215.286,296.775,215.755,296.491"/>
			</g>
		</g>
		<g enable-background="new    ">
			<defs>
				<path id="SVGID_5_" enable-background="new    " d="M175.096,284.891l-4.681,2.828c-1.263,0.763-2.929,1.261-4.923,1.498
					c-6.87,0.817-17.628-1.462-29.155-6.669c-18.361-8.281-31.74-20.871-29.874-28.086c0.352-1.369,1.226-2.447,2.536-3.238
					l4.681-2.828c-1.311,0.792-2.184,1.87-2.536,3.238c-1.866,7.215,11.512,19.806,29.874,28.086
					c11.527,5.206,22.286,7.485,29.155,6.669C172.167,286.151,173.833,285.653,175.096,284.891z"/>
			</defs>
			<clipPath id="SVGID_6_">
				<use xlink:href="#SVGID_5_"  overflow="visible"/>
			</clipPath>
			<g clip-path="url(#SVGID_6_)" enable-background="new    ">
				<path fill="#751E14" d="M175.096,284.891l-4.681,2.828c-1.263,0.763-2.929,1.261-4.923,1.498
					c-6.87,0.817-17.628-1.462-29.155-6.669c-18.361-8.281-31.74-20.871-29.874-28.086c0.352-1.369,1.226-2.447,2.536-3.238
					l4.681-2.828c-1.311,0.792-2.184,1.87-2.536,3.238c-1.866,7.215,11.512,19.806,29.874,28.086
					c11.527,5.206,22.286,7.485,29.155,6.669C172.167,286.151,173.833,285.653,175.096,284.891"/>
			</g>
		</g>
		<g>
			<path fill="#DF3926" d="M118.593,246.901c6.867-0.816,17.629,1.464,29.167,6.667c18.373,8.297,31.751,20.852,29.88,28.077
				c-0.693,2.69-3.397,4.26-7.467,4.744c-6.87,0.817-17.628-1.462-29.155-6.669c-18.361-8.281-31.74-20.871-29.874-28.086
				C111.833,248.949,114.532,247.384,118.593,246.901z"/>
		</g>
		<g enable-background="new    ">
			<defs>
				<path id="SVGID_7_" enable-background="new    " d="M194.903,347.461l-4.681,2.828c-3.385,2.045-7.6,3.392-12.379,3.96
					c-7.037,0.836-15.299-0.016-23.936-2.816c-22.735-7.381-39.479-25.452-37.387-40.367c0.753-5.392,3.868-9.635,8.616-12.503
					l4.681-2.828c-4.748,2.868-7.863,7.111-8.616,12.503c-2.091,14.915,14.652,32.986,37.387,40.367
					c8.636,2.799,16.899,3.652,23.936,2.816C187.303,350.853,191.518,349.506,194.903,347.461z"/>
			</defs>
			<clipPath id="SVGID_8_">
				<use xlink:href="#SVGID_7_"  overflow="visible"/>
			</clipPath>
			<g clip-path="url(#SVGID_8_)" enable-background="new    ">
				<path fill="#751E14" d="M194.903,347.461l-4.681,2.828c-3.385,2.045-7.6,3.392-12.379,3.96
					c-7.037,0.836-15.299-0.016-23.936-2.816c-22.735-7.381-39.479-25.452-37.387-40.367c0.753-5.392,3.868-9.635,8.616-12.503
					l4.681-2.828c-4.748,2.868-7.863,7.111-8.616,12.503c-2.091,14.915,14.652,32.986,37.387,40.367
					c8.636,2.799,16.899,3.652,23.936,2.816C187.303,350.853,191.518,349.506,194.903,347.461"/>
			</g>
		</g>
		<g>
			<path fill="#DF3926" d="M142.178,291.78c7.039-0.837,15.308,0.021,23.952,2.835c22.741,7.372,39.474,25.435,37.391,40.349
				c-1.294,9.235-9.517,15.092-20.996,16.456c-7.037,0.836-15.299-0.016-23.936-2.816c-22.735-7.381-39.479-25.452-37.387-40.367
				C122.49,299.006,130.704,293.144,142.178,291.78z"/>
		</g>
	</g>
</g>
<g>
	<path d="M4.75,285.642h4.29v14.067h0.1c0.898-2.645,3.242-3.792,8.132-3.792h6.535c10.325,0,13.469,2.893,13.469,11.024v4.49
		c0,8.779-5.437,10.724-13.219,10.724h-5.985c-4.49,0-7.982-1.347-9.229-4.438H8.74v4.04H4.75V285.642z M32.984,306.394
		c0-5.885-2.943-6.983-8.829-6.983h-5.787c-5.787,0-9.329,0.997-9.329,7.083v4.84c0,4.638,2.045,7.332,8.43,7.332h6.985
		c6.983,0,8.53-2.343,8.53-7.283v-4.988H32.984z"/>
	<path d="M45.609,327.745c6.585,0,7.982-0.448,10.227-5.588h-1.047l-14.417-25.839h4.838l12.322,22.497l11.074-22.497h4.638
		l-14.367,28.584c-2.643,5.238-4.44,6.235-13.27,6.337v-3.493H45.609z"/>
</g>
<g>
	<path d="M280.251,316.724c0.094,2.502,0.785,4.379,2.068,5.628c1.284,1.252,2.685,2.02,4.207,2.305
		c0.285,0,0.546,0.018,0.785,0.053c0.236,0.037,0.45,0.054,0.642,0.054c1.901,0,3.636-0.517,5.205-1.555
		c1.569-1.035,2.353-2.198,2.353-3.484c0-1.286-0.738-2.375-2.211-3.269c-1.475-0.893-3.351-1.769-5.633-2.627
		c-1.332-0.429-2.734-0.893-4.207-1.394c-1.475-0.5-2.972-1.035-4.491-1.608c-4.089-1.571-7.868-3.645-11.337-6.218
		c-3.471-2.573-5.205-6.325-5.205-11.257c0-5.36,2.233-9.236,6.702-11.632c4.468-2.394,9.412-3.769,14.83-4.128
		c0.664-0.07,1.377-0.123,2.139-0.161c0.76-0.035,1.473-0.053,2.139-0.053c6.179,0,11.765,1.501,16.756,4.503
		c4.991,3.002,7.486,7.112,7.486,12.329v1.286h-17.967v-1.608c0-1.857-0.595-3.27-1.783-4.235c-1.19-0.965-2.496-1.517-3.921-1.661
		c-0.192-0.07-0.357-0.108-0.499-0.108c-0.143,0-0.31,0-0.499,0c-0.285,0-0.548,0.019-0.785,0.054
		c-0.238,0.037-0.452,0.054-0.642,0.054c-1.333,0.286-2.545,0.804-3.636,1.554c-1.094,0.75-1.64,1.627-1.64,2.627l0.142,0.429
		c0.189,1.43,1.092,2.61,2.709,3.537c1.615,0.93,3.565,1.787,5.847,2.573c1.141,0.429,2.304,0.841,3.493,1.233
		c1.188,0.394,2.4,0.804,3.636,1.234c3.612,1.358,6.988,3.146,10.125,5.36c3.137,2.216,4.942,5.361,5.419,9.435v2.036
		c0,4.361-1.902,8.201-5.704,11.525c-3.803,3.323-10.648,4.985-20.534,4.985c-8.367,0-14.427-1.662-18.182-4.985
		c-3.756-3.324-5.633-7.594-5.633-12.811H280.251z"/>
	<path d="M318.038,279.63h19.964l4.991,34.843l8.128-34.843h16.969l6.987,34.843l5.989-34.843h20.107L386.2,333.127h-21.105
		l-5.989-26.373l-5.989,26.373h-22.103L318.038,279.63z"/>
	<path fill="#5176FD" d="M410.013,292.602c0-4.645,2.447-8.344,7.344-11.096c4.894-2.751,11.145-4.128,18.751-4.128
		c9.506,0,16.186,1.573,20.035,4.717c3.85,3.146,5.775,6.647,5.775,10.507v26.372c0,5.218-2.188,9.113-6.559,11.687
		c-4.374,2.573-10.79,3.86-19.251,3.86c-9.507,0-16.234-1.483-20.178-4.45c-3.945-2.965-5.918-6.664-5.918-11.096V292.602z
		 M429.834,318.225c0,1.645,0.546,2.985,1.64,4.02c1.092,1.037,2.304,1.699,3.636,1.983c0.19,0,0.403,0.019,0.643,0.054
		c0.236,0.037,0.449,0.053,0.642,0.053c0.094,0,0.213,0,0.357,0c0.142,0,0.26,0,0.356,0c1.235-0.142,2.376-0.66,3.423-1.554
		c1.045-0.893,1.568-2.161,1.568-3.806v-24.229c0-1.643-0.523-2.929-1.568-3.86c-1.047-0.928-2.188-1.501-3.423-1.715
		c-0.096,0-0.213,0-0.356,0c-0.144,0-0.263,0-0.357,0c-0.192,0-0.406,0.019-0.642,0.054c-0.239,0.037-0.452,0.053-0.643,0.053
		c-1.332,0.287-2.545,0.912-3.636,1.876c-1.094,0.965-1.64,2.162-1.64,3.591V318.225z"/>
	<path fill="#5176FD" d="M472.898,292.602c0-4.645,2.447-8.344,7.344-11.096c4.894-2.751,11.145-4.128,18.751-4.128
		c9.506,0,16.186,1.573,20.035,4.717c3.85,3.146,5.775,6.647,5.775,10.507v26.372c0,5.218-2.188,9.113-6.559,11.687
		c-4.374,2.573-10.79,3.86-19.251,3.86c-9.507,0-16.234-1.483-20.178-4.45c-3.945-2.965-5.918-6.664-5.918-11.096V292.602z
		 M492.719,318.225c0,1.645,0.546,2.985,1.64,4.02c1.092,1.037,2.304,1.699,3.636,1.983c0.19,0,0.403,0.019,0.643,0.054
		c0.236,0.037,0.449,0.053,0.642,0.053c0.094,0,0.213,0,0.357,0c0.142,0,0.26,0,0.356,0c1.235-0.142,2.376-0.66,3.423-1.554
		c1.045-0.893,1.568-2.161,1.568-3.806v-24.229c0-1.643-0.523-2.929-1.568-3.86c-1.047-0.928-2.188-1.501-3.423-1.715
		c-0.096,0-0.213,0-0.356,0c-0.144,0-0.263,0-0.357,0c-0.192,0-0.406,0.019-0.642,0.054c-0.239,0.037-0.452,0.053-0.643,0.053
		c-1.332,0.287-2.545,0.912-3.636,1.876c-1.094,0.965-1.64,2.162-1.64,3.591V318.225z"/>
	<path d="M536.212,260.76h20.962v72.366h-20.962V260.76z"/>
	<path d="M589.543,316.724c0,2.144,0.689,3.842,2.068,5.092c1.377,1.251,2.874,1.913,4.492,1.983c0.094,0,0.164,0,0.213,0
		c0.047,0,0.119,0,0.214,0c0.094,0,0.165,0,0.214,0c0.047,0,0.117,0,0.214,0c1.71-0.07,3.28-0.768,4.705-2.09
		c1.426-1.322,2.139-3.233,2.139-5.736v-2.251h19.821v2.036c0,5.79-2.139,10.365-6.417,13.723c-4.278,3.36-10.41,5.039-18.396,5.039
		c-8.651,0-15.663-1.448-21.034-4.343c-5.372-2.894-8.057-7.129-8.057-12.703v-22.729c0-6.432,2.946-10.935,8.842-13.508
		c5.893-2.573,12.642-3.86,20.248-3.86c7.986,0,14.118,1.447,18.396,4.342c4.278,2.895,6.417,7.023,6.417,12.382v14.152h-34.081
		V316.724z M604.801,298.498v-2.037c0-2.286-0.713-4.251-2.139-5.896c-1.426-1.643-3.471-2.466-6.132-2.466
		c-2.948,0-4.849,1.055-5.703,3.162c-0.856,2.109-1.284,4.414-1.284,6.915c0,0.072,0,0.125,0,0.16c0,0.037,0,0.091,0,0.161H604.801z
		"/>
</g>
</svg>
